<svg width="472" height="472" viewBox="0 0 472 472" fill="none" xmlns="http://www.w3.org/2000/svg">
<rect width="472" height="472" fill="#5108BE"/>
<path d="M43.0625 243.79V229.79L99.0625 205.131V221.239L60.7216 236.631L61.2386 235.795V237.784L60.7216 236.949L99.0625 252.341V268.449L43.0625 243.79ZM145.08 277H116.205V195.545H145.318C153.511 195.545 160.564 197.176 166.477 200.438C172.39 203.672 176.938 208.326 180.119 214.398C183.328 220.47 184.932 227.735 184.932 236.193C184.932 244.678 183.328 251.97 180.119 258.068C176.938 264.167 172.364 268.847 166.398 272.108C160.458 275.369 153.352 277 145.08 277ZM133.426 262.244H144.364C149.455 262.244 153.737 261.343 157.21 259.54C160.71 257.71 163.335 254.886 165.085 251.068C166.862 247.223 167.75 242.265 167.75 236.193C167.75 230.174 166.862 225.256 165.085 221.438C163.335 217.619 160.723 214.809 157.25 213.006C153.777 211.203 149.494 210.301 144.403 210.301H133.426V262.244ZM202.134 278.034C199.509 278.034 197.255 277.106 195.372 275.25C193.516 273.367 192.588 271.114 192.588 268.489C192.588 265.89 193.516 263.663 195.372 261.807C197.255 259.951 199.509 259.023 202.134 259.023C204.679 259.023 206.906 259.951 208.815 261.807C210.724 263.663 211.679 265.89 211.679 268.489C211.679 270.239 211.228 271.843 210.327 273.301C209.452 274.733 208.298 275.886 206.866 276.761C205.435 277.61 203.857 278.034 202.134 278.034ZM225.908 277V195.545H258.521C264.514 195.545 269.512 196.434 273.516 198.21C277.519 199.987 280.529 202.453 282.544 205.608C284.559 208.737 285.567 212.343 285.567 216.426C285.567 219.608 284.93 222.405 283.658 224.818C282.385 227.205 280.635 229.167 278.408 230.705C276.207 232.216 273.688 233.29 270.851 233.926V234.722C273.953 234.854 276.857 235.729 279.561 237.347C282.292 238.964 284.506 241.231 286.203 244.148C287.9 247.038 288.749 250.485 288.749 254.489C288.749 258.811 287.675 262.669 285.527 266.062C283.406 269.43 280.264 272.095 276.101 274.057C271.938 276.019 266.807 277 260.709 277H225.908ZM243.129 262.92H257.169C261.968 262.92 265.468 262.006 267.669 260.176C269.87 258.32 270.97 255.854 270.97 252.778C270.97 250.525 270.427 248.536 269.339 246.812C268.252 245.089 266.701 243.737 264.686 242.756C262.697 241.775 260.324 241.284 257.567 241.284H243.129V262.92ZM243.129 229.631H255.896C258.256 229.631 260.351 229.22 262.18 228.398C264.036 227.549 265.495 226.356 266.555 224.818C267.643 223.28 268.186 221.438 268.186 219.29C268.186 216.347 267.139 213.973 265.044 212.17C262.976 210.367 260.033 209.466 256.214 209.466H243.129V229.631ZM361.036 191.727L334.786 289.25H320.189L346.439 191.727H361.036ZM428.5 251.426L372.5 276.085V259.977L410.841 244.585L410.324 245.42V243.432L410.841 244.267L372.5 228.875V212.767L428.5 237.426V251.426Z" fill="white"/>
</svg>
